<?xml version="1.0" standalone="no"?><!DOCTYPE svg PUBLIC "-//W3C//DTD SVG 1.1//EN" "http://www.w3.org/Graphics/SVG/1.1/DTD/svg11.dtd"><svg t="1578550046112" class="icon" viewBox="0 0 1024 1024" version="1.1" xmlns="http://www.w3.org/2000/svg" p-id="2543" xmlns:xlink="http://www.w3.org/1999/xlink" width="128" height="128"><defs><style type="text/css"></style></defs><path d="M786.625 421.688l161.5-90.469L516.719 53.781 75.844 340.906l164.75 87.219-164.75 93.656L240.594 609l-164.75 93.688L517.188 970.25 948.125 693l-161.5-90.438 161.5-90.438L786.625 421.688 786.625 421.688zM516.938 114.594 839.75 331.219 516.469 548.125 185.875 339.25 516.938 114.594 516.938 114.594zM296.063 457.469l221.125 150.969L732.5 452l107.25 60.125L516.469 729 185.875 520.125 296.063 457.469 296.063 457.469zM839.75 693 516.469 909.938 185.875 701l110.188-62.625 221.125 150.938L732.5 632.875 839.75 693 839.75 693z" p-id="2544"></path></svg>