<?xml version="1.0" standalone="no"?><!DOCTYPE svg PUBLIC "-//W3C//DTD SVG 1.1//EN" "http://www.w3.org/Graphics/SVG/1.1/DTD/svg11.dtd"><svg t="1582696876894" class="icon" viewBox="0 0 1024 1024" version="1.1" xmlns="http://www.w3.org/2000/svg" p-id="1729" xmlns:xlink="http://www.w3.org/1999/xlink" width="128" height="128"><defs><style type="text/css"></style></defs><path d="M480 64A416.64 416.64 0 0 0 64 480 416.64 416.64 0 0 0 480 896 416.64 416.64 0 0 0 896 480 416.64 416.64 0 0 0 480 64z m0 64C674.752 128 832 285.248 832 480S674.752 832 480 832A351.552 351.552 0 0 1 128 480C128 285.248 285.248 128 480 128zM448 256v64h64V256z m0 128v320h64V384z" fill="" p-id="1730"></path></svg>