<?xml version="1.0" standalone="no"?><!DOCTYPE svg PUBLIC "-//W3C//DTD SVG 1.1//EN" "http://www.w3.org/Graphics/SVG/1.1/DTD/svg11.dtd"><svg t="1578444799409" class="icon" viewBox="0 0 1199 1024" version="1.1" xmlns="http://www.w3.org/2000/svg" p-id="13858" xmlns:xlink="http://www.w3.org/1999/xlink" width="149.875" height="128"><defs><style type="text/css"></style></defs><path d="M599.785746 406.53866m-72.889047 0a72.889047 72.889047 0 1 0 145.778094 0 72.889047 72.889047 0 1 0-145.778094 0Z" p-id="13859"></path><path d="M886.87748 406.53866m-72.889047 0a72.889047 72.889047 0 1 0 145.778094 0 72.889047 72.889047 0 1 0-145.778094 0Z" p-id="13860"></path><path d="M312.785123 406.53866m-72.889047 0a72.889047 72.889047 0 1 0 145.778094 0 72.889047 72.889047 0 1 0-145.778094 0Z" p-id="13861"></path><path d="M1069.464543 0H130.106949A130.289172 130.289172 0 0 0 0 130.106949v570.994572a130.289172 130.289172 0 0 0 130.106949 130.10695h106.50912l99.220215 171.471483a41.820091 41.820091 0 0 0 72.433491 0L507.48999 830.752914h561.974553a130.289172 130.289172 0 0 0 130.106949-130.106949V130.106949A130.289172 130.289172 0 0 0 1069.464543 0z m75.440164 701.101521a75.531275 75.531275 0 0 1-75.440164 75.440164H491.727734a27.333393 27.333393 0 0 0-23.597829 13.757808l-96.03132 166.187027L276.067266 790.208382a27.333393 27.333393 0 0 0-23.597829-13.757808H130.106949A75.531275 75.531275 0 0 1 54.666785 701.01041V130.106949A75.531275 75.531275 0 0 1 130.106949 54.666785h939.357594a75.531275 75.531275 0 0 1 75.440164 75.440164z" p-id="13862"></path></svg>