<?xml version="1.0" standalone="no"?><!DOCTYPE svg PUBLIC "-//W3C//DTD SVG 1.1//EN" "http://www.w3.org/Graphics/SVG/1.1/DTD/svg11.dtd"><svg t="1578550184459" class="icon" viewBox="0 0 1024 1024" version="1.1" xmlns="http://www.w3.org/2000/svg" p-id="3563" xmlns:xlink="http://www.w3.org/1999/xlink" width="128" height="128"><defs><style type="text/css"></style></defs><path d="M570.181818 833.163636h-60.509091v107.054546a46.545455 46.545455 0 0 1-93.090909 0v-107.054546h-88.436363a97.745455 97.745455 0 0 1-97.745455-97.745454v-60.509091h-111.709091a46.545455 46.545455 0 0 1 0-93.090909h111.709091v-60.509091h-111.709091a46.545455 46.545455 0 1 1 0-93.090909h111.709091V325.818182c0-53.992727 43.752727-97.745455 97.745455-97.745455h88.66909a47.104 47.104 0 0 1-0.232727-4.654545V111.709091a46.545455 46.545455 0 1 1 93.090909 0v111.709091c0 1.582545-0.093091 3.118545-0.232727 4.654545h60.974545a47.104 47.104 0 0 1-0.232727-4.654545V111.709091a46.545455 46.545455 0 0 1 93.090909 0v111.709091c0 1.582545-0.093091 3.118545-0.232727 4.654545h74.705455c53.992727 0 97.745455 43.752727 97.745454 97.745455v102.4h111.709091a46.545455 46.545455 0 0 1 0 93.090909h-111.709091v60.509091h111.709091a46.545455 46.545455 0 0 1 0 93.090909h-111.709091v60.509091a97.745455 97.745455 0 0 1-97.745454 97.745454h-74.472728v107.054546a46.545455 46.545455 0 0 1-93.090909 0v-107.054546z m-242.036363-512a4.654545 4.654545 0 0 0-4.654546 4.654546v409.6a4.654545 4.654545 0 0 0 4.654546 4.654545h409.6a4.654545 4.654545 0 0 0 4.654545-4.654545V325.818182a4.654545 4.654545 0 0 0-4.654545-4.654546h-409.6zM425.890909 418.909091h214.109091a46.545455 46.545455 0 0 1 0 93.090909h-214.109091a46.545455 46.545455 0 1 1 0-93.090909z m0 153.6h214.109091a46.545455 46.545455 0 0 1 0 93.090909h-214.109091a46.545455 46.545455 0 0 1 0-93.090909z" p-id="3564"></path></svg>