<?xml version="1.0" standalone="no"?><!DOCTYPE svg PUBLIC "-//W3C//DTD SVG 1.1//EN" "http://www.w3.org/Graphics/SVG/1.1/DTD/svg11.dtd"><svg t="1578550129821" class="icon" viewBox="0 0 1024 1024" version="1.1" xmlns="http://www.w3.org/2000/svg" p-id="2750" xmlns:xlink="http://www.w3.org/1999/xlink" width="128" height="128"><defs><style type="text/css"></style></defs><path d="M480 64A416.32 416.32 0 0 0 64 480a416.192 416.192 0 0 0 186.24 346.752l8 5.248h443.52l8-5.248A416.192 416.192 0 0 0 896 480C896 250.496 709.504 64 480 64z m0 64C674.752 128 832 285.248 832 480c0 120-60.992 224.512-152.768 288h-398.72C188.992 704.512 128 600 128 480 128 285.248 285.248 128 480 128z m0 64c-17.728 0-32 14.272-32 32s14.272 32 32 32 32-14.272 32-32-14.272-32-32-32z m191.232 63.744a32.448 32.448 0 0 0-21.952 9.728l-191.808 192a31.872 31.872 0 1 0 45.056 45.056l192.192-192a32.192 32.192 0 0 0 7.04-35.264 32.64 32.64 0 0 0-30.528-19.52zM288 256c-17.728 0-32 14.272-32 32s14.272 32 32 32 32-14.272 32-32-14.272-32-32-32z m-64 192c-17.728 0-32 14.272-32 32s14.272 32 32 32 32-14.272 32-32-14.272-32-32-32z m512 0c-17.728 0-32 14.272-32 32s14.272 32 32 32 32-14.272 32-32-14.272-32-32-32z m-448 192c-17.728 0-32 14.272-32 32s14.272 32 32 32 32-14.272 32-32-14.272-32-32-32z m384 0c-17.728 0-32 14.272-32 32s14.272 32 32 32 32-14.272 32-32-14.272-32-32-32z" p-id="2751"></path></svg>